<svg xmlns="http://www.w3.org/2000/svg" xmlns:xlink="http://www.w3.org/1999/xlink" viewBox="0,0,256,256" width="100px" height="100px"><g fill="#ffffff" fill-rule="nonzero" stroke="none" stroke-width="1" stroke-linecap="butt" stroke-linejoin="miter" stroke-miterlimit="10" stroke-dasharray="" stroke-dashoffset="0" font-family="none" font-weight="none" font-size="none" text-anchor="none" style="mix-blend-mode: normal"><g transform="scale(5.12,5.12)"><path d="M25.20508,2.00781l-5.05469,13.99219h3.24414c2.12,0 3.26311,1.63195 2.53711,3.62695l-5.43945,14.375l-3.91797,-0.00195l5.57617,-15h-3.18555l-5.57617,15h-4.23828l11.64844,-31.60547c-0.471,0.087 -0.93844,0.18478 -1.39844,0.30078c-9.984,2.507 -17.39844,11.55564 -17.39844,22.30664c0,10.381 6.91295,19.17244 16.37695,22.02344c0.321,0.097 0.64566,0.19044 0.97266,0.27344l0.69141,-1.91211l4.02539,-11.12891h0.00195l6.51953,-18.25781h7.80273c2.122,0 3.26406,1.63195 2.53906,3.62695l-4.74805,12.6875c-0.338,0.927 -1.4212,1.68555 -2.4082,1.68555h-5.625l-4.32422,11.94141l-0.71484,1.97656c0.292,0.024 0.58391,0.04659 0.87891,0.05859c0.336,0.015 0.67272,0.02539 1.01172,0.02539c12.682,0 23,-10.317 23,-23c-0.001,-12.392 -9.85377,-22.52052 -22.13476,-22.97852c-0.22,-0.008 -0.44111,-0.01363 -0.66211,-0.01562zM33.96484,19l-4.50977,12h3.18555l4.50977,-12z"></path></g></g></svg>