<svg xmlns="http://www.w3.org/2000/svg" xmlns:xlink="http://www.w3.org/1999/xlink" viewBox="0,0,256,256" width="100px" height="100px"><g fill="#ffffff" fill-rule="nonzero" stroke="none" stroke-width="1" stroke-linecap="butt" stroke-linejoin="miter" stroke-miterlimit="10" stroke-dasharray="" stroke-dashoffset="0" font-family="none" font-weight="none" font-size="none" text-anchor="none" style="mix-blend-mode: normal"><g transform="scale(5.12,5.12)"><path d="M39,4h-28c-3.855,0 -7,3.145 -7,7v28c0,3.855 3.145,7 7,7h28c3.855,0 7,-3.145 7,-7v-28c0,-3.855 -3.145,-7 -7,-7zM23,34h-4v-11h4zM31,34h-4v-11c0,-1.66 -1.34,-3 -3,-3h-9v14h-4v-18h14c3.31,0 6,2.69 6,6zM39,34h-4v-18h4z"></path></g></g></svg>